# Alias Wavefront OBJ File Exported from SketchUp
# with OBJexporter (c) 2013 TIG
# Units = meters

mtllib settlementsheet.mtl

g settlementsheet-COM-Component_4-4501-SketchUV_Texture
usemtl SketchUV_Texture
v 9.36208047649 0.129746375 12.5124205568
v -9.36208047649 0.129746375 -12.5124205568
v -9.36208047649 0.129746375 12.5124205568
v 9.36208047649 0.129746375 -12.5124205568
v -9.36208047649 -0.129746375 12.5124205568
v 9.36208047649 -0.129746375 12.5124205568
v 9.36208047649 -0.129746375 -12.5124205568
v -9.36208047649 -0.129746375 -12.5124205568
vt 0.748222970445 9.5950368695e-17
vt -4.42996993136e-16 1
vt 2.88477923298e-17 5.76955846595e-17
vt 0.748222970445 1
vt 0.748222970445 0.0103694064958
vt 0 0
vt 0.748222970445 0
vt 0 0.0103694064958
vt 1 0.0103694064958
vt 0.251777029555 0
vt 1 0
vt 0.251777029555 0.0103694064958
vt 2.88477923298e-17 0.0103694064958
vt 2.88477923298e-17 0
vt 6.66133814775e-16 0.0103694064958
vt 3.33066907388e-16 0
vt 0.748222970445 2.22044604925e-16
vt -4.71844785466e-16 1
vn 0 1 0
vn 0 0 1
vn 0 0 -1
vn 1 0 0
vn -1 0 0
vn 0 -1 0
f 1/1/1 2/2/1 3/3/1
f 2/2/1 1/1/1 4/4/1
f 1/5/2 5/6/2 6/7/2
f 5/6/2 1/5/2 3/8/2
f 2/9/3 7/10/3 8/11/3
f 7/10/3 2/9/3 4/12/3
f 7/11/4 1/13/4 6/14/4
f 1/13/4 7/11/4 4/9/4
f 2/15/5 5/11/5 3/9/5
f 5/11/5 2/15/5 8/16/5
f 7/17/6 5/18/6 8/6/6
f 5/18/6 7/17/6 6/4/6

#EOF