# Alias Wavefront OBJ File Exported from SketchUp
# with OBJexporter (c) 2013 TIG
# Units = meters

mtllib kdm_mod_inventorysheetv22.mtl

g kdm_mod_inventorysheetv22-SKP-SketchUV_Texture
usemtl SketchUV_Texture
v -13.9573072164 0.129746375 -12.5124205568
v -13.9573072164 -0.129746375 12.5124205568
v -13.9573072164 0.129746375 12.5124205568
v -13.9573072164 -0.129746375 -12.5124205568
v 13.9573072164 0.129746375 12.5124205568
v 13.9573072164 -0.129746375 12.5124205568
v 13.9573072164 -0.129746375 -12.5124205568
v 13.9573072164 0.129746375 -12.5124205568
vt 0.0109093417863 -0.00227458878225
vt 0.00162492623328 -0.888337008541
vt 0.0109093417863 -0.888337008541
vt 0.00162492623328 -0.00227458878224
vt 1 0.0106637408308
vt -2.77555756156e-15 0.00136779477263
vt 1 0.00136779477263
vt 6.82787160144e-15 0.0106637408308
vt 0.00138083379382 -0.0110952798636
vt 1.00049051848 -0.00179933380548
vt 0.00138083379376 -0.00179933380548
vt 1.00049051848 -0.0110952798636
vt 1 0.103521878335
vt 1.11022302463e-16 1
vt 1.11022302463e-16 0.103521878335
vt 1 1
vt -0.00128243872853 -0.000975368104426
vt -0.0105783847867 -0.89745348977
vt -0.00128243872853 -0.89745348977
vt -0.0105783847867 -0.000975368104363
vt 1.00131373591 0.101084245526
vt 0.00141906601375 0.999120256008
vt 0.00141906601375 0.101084245526
vt 1.00131373591 0.999120256008
vn -1 0 0
vn 0 0 1
vn 0 0 -1
vn 0 -1 0
vn 1 0 0
vn 0 1 0
f 1/1/1 2/2/1 3/3/1
f 2/2/1 1/1/1 4/4/1
f 5/5/2 2/6/2 6/7/2
f 2/6/2 5/5/2 3/8/2
f 1/9/3 7/10/3 4/11/3
f 7/10/3 1/9/3 8/12/3
f 7/13/4 2/14/4 4/15/4
f 2/14/4 7/13/4 6/16/4
f 7/17/5 5/18/5 6/19/5
f 5/18/5 7/17/5 8/20/5
f 5/21/6 1/22/6 3/23/6
f 1/22/6 5/21/6 8/24/6

#EOF