o shelf_long_small
v 5.640896 0.567832 54.650459
v 5.488315 0.487415 54.497875
v 5.436923 0.358634 54.446484
v 5.260814 0.243201 54.270374
v 4.832455 -0.011485 53.842014
v 4.871069 -0.306289 53.880630
v 5.821940 0.739881 54.831501
v 5.713737 0.689881 54.723297
v 5.017901 0.159564 54.027462
v 4.815082 -0.203188 53.824642
v 4.729599 -0.376591 53.739159
v 4.628518 -0.614749 53.638077
v 4.391921 -0.752783 53.401482
v 5.640890 0.567858 -54.650459
v 5.488309 0.487441 -54.497875
v 5.436917 0.358660 -54.446484
v 5.260808 0.243227 -54.270374
v 4.832449 -0.011460 -53.842014
v 4.871064 -0.306263 -53.880630
v 5.821935 0.739907 -54.831501
v 5.713732 0.689907 -54.723297
v 5.017896 0.159590 -54.027462
v 4.815076 -0.203162 -53.824642
v 4.729594 -0.376566 -53.739159
v 4.628512 -0.614723 -53.638077
v 4.391915 -0.752758 -53.401482
v -5.640890 0.567832 54.650459
v -5.488309 0.487415 54.497875
v -5.436917 0.358634 54.446484
v -5.260808 0.243201 54.270374
v -4.832449 -0.011485 53.842014
v -4.871064 -0.306289 53.880630
v -5.821935 0.739881 54.831501
v -5.713732 0.689881 54.723297
v -5.017896 0.159564 54.027462
v -4.815076 -0.203188 53.824642
v -4.729594 -0.376591 53.739159
v -4.628512 -0.614749 53.638077
v -4.391915 -0.752783 53.401482
v -5.640896 0.567858 -54.650459
v -5.488315 0.487441 -54.497875
v -5.436923 0.358660 -54.446484
v -5.260814 0.243227 -54.270374
v -4.832455 -0.011460 -53.842014
v -4.871069 -0.306263 -53.880630
v -5.821940 0.739907 -54.831501
v -5.713737 0.689907 -54.723297
v -5.017901 0.159590 -54.027462
v -4.815082 -0.203162 -53.824642
v -4.729599 -0.376566 -53.739159
v -4.628518 -0.614723 -53.638077
v -4.391921 -0.752758 -53.401482
v 4.336707 -0.863213 53.346268
v 4.391921 -0.807998 53.401482
v 4.375750 -0.847041 53.385311
v 5.821940 0.807972 54.831501
v 5.766726 0.863187 54.776287
v 5.805769 0.847015 54.815331
v 4.391915 -0.807973 -53.401482
v 4.336701 -0.863187 -53.346268
v 4.375744 -0.847015 -53.385311
v 5.766721 0.863213 -54.776287
v 5.821935 0.807998 -54.831501
v 5.805763 0.847041 -54.815331
v -4.391915 -0.807998 53.401482
v -4.336701 -0.863213 53.346268
v -4.375744 -0.847041 53.385311
v -5.766721 0.863187 54.776287
v -5.821935 0.807972 54.831501
v -5.805763 0.847015 54.815331
v -4.336707 -0.863187 -53.346268
v -4.391921 -0.807973 -53.401482
v -4.375750 -0.847015 -53.385311
v -5.821940 0.807998 -54.831501
v -5.766726 0.863213 -54.776287
v -5.805769 0.847041 -54.815331
vt 0.899287 0.875000
vt 0.003906 0.875000
vt 0.003906 0.871094
vt 0.003906 0.914062
vt 0.899287 0.914062
vt 0.899287 0.925781
vt 0.899287 0.425781
vt 0.993037 0.425781
vt 0.993037 0.414062
vt 0.899287 0.937500
vt 0.003906 0.937500
vt 0.899287 0.980469
vt 0.003906 0.980469
vt 0.003906 0.968750
vt 0.899287 0.953125
vt 0.899287 0.960938
vt 0.003906 0.960938
vt 0.899287 0.968750
vt 0.899287 0.992188
vt 0.003906 0.992188
vt 0.898603 0.332031
vt 0.898749 0.335938
vt 0.004443 0.335938
vt 0.900263 0.325391
vt 0.900263 0.018359
vt 0.901240 0.017773
vt 0.899287 0.882812
vt 0.003906 0.882812
vt 0.899287 0.890625
vt 0.899287 0.902344
vt 0.003906 0.902344
vt 0.003906 0.437500
vt 0.003906 0.445312
vt 0.899287 0.445312
vt 0.899287 0.437500
vt 0.993037 0.437500
vt 0.993037 0.347656
vt 0.899287 0.347656
vt 0.899287 0.359375
vt 0.899287 0.367188
vt 0.899287 0.375000
vt 0.993037 0.375000
vt 0.997919 0.492188
vt 0.904169 0.492188
vt 0.904169 0.503906
vt 0.003906 0.890625
vt 0.997919 0.480469
vt 0.904169 0.480469
vt 0.899287 0.453125
vt 0.993037 0.453125
vt 0.993037 0.445312
vt 0.898310 0.859375
vt 0.004883 0.859375
vt 0.004883 0.468750
vt 0.899287 0.414062
vt 0.003906 0.414062
vt 0.003906 0.425781
vt 0.003906 0.453125
vt 0.003906 0.457031
vt 0.899287 0.457031
vt 0.003906 0.402344
vt 0.997919 0.570312
vt 0.904169 0.570312
vt 0.904169 0.582031
vt 0.003906 0.390625
vt 0.899287 0.402344
vt 0.997919 0.511719
vt 0.997919 0.503906
vt 0.003906 0.359375
vt 0.003906 0.367188
vt 0.003906 0.375000
vt 0.899287 0.390625
vt 0.003906 0.347656
vt 0.899287 0.335938
vt 0.997919 0.601562
vt 0.997919 0.597656
vt 0.904169 0.597656
vt 0.898603 0.867188
vt 0.898749 0.871094
vt 0.004517 0.871094
vt 0.993037 0.402344
vt 0.993037 0.390625
vt 0.997919 0.582031
vt 0.904169 0.589844
vt 0.001953 0.325977
vt 0.001953 0.017773
vt 0.002930 0.018359
vt 0.997919 0.589844
vt 0.993037 0.335938
vt 0.898310 0.324219
vt 0.004883 0.324219
vt 0.004883 0.019531
vt 0.904169 0.511719
vt 0.904169 0.519531
vt 0.997919 0.519531
vt 0.904169 0.535156
vt 0.901240 0.466992
vt 0.901240 0.861133
vt 0.900263 0.860547
vt 0.993037 0.457031
vt 0.997919 0.546875
vt 0.997919 0.535156
vt 0.904169 0.546875
vt 0.904169 0.558594
vt 0.993037 0.367188
vt 0.001953 0.466992
vt 0.002930 0.467578
vt 0.002930 0.860547
vt 0.997919 0.558594
vt 0.898603 0.460938
vt 0.004590 0.460938
vt 0.004443 0.457031
vt 0.898457 0.863281
vt 0.004761 0.863281
vt 0.004639 0.867188
vt 0.898457 0.015625
vt 0.004736 0.015625
vt 0.004590 0.011719
vt 0.898310 0.019531
vt 0.898457 0.464844
vt 0.004736 0.464844
vt 0.898310 0.468750
vt 0.898457 0.328125
vt 0.004736 0.328125
vt 0.004590 0.332031
vt 0.003906 0.324805
vt 0.003906 0.018945
vt 0.002930 0.325391
vt 0.003906 0.468164
vt 0.003906 0.859961
vt 0.899287 0.324805
vt 0.899287 0.018945
vt 0.899287 0.468164
vt 0.899287 0.859961
vt 0.900263 0.467578
vt 0.898749 0.007812
vt 0.898603 0.011719
vt 0.899287 0.871094
vt 0.003906 0.925781
vt 0.003906 0.953125
vt 0.901240 0.325977
vt 0.993037 0.359375
vt 0.003906 0.335938
vt 0.904169 0.601562
vt 0.001953 0.861133
vt 0.898749 0.457031
vt 0.004443 0.007812
vn 0.320400 -0.891400 0.320400
vn 0.320400 -0.891400 -0.320400
vn 0.617700 -0.486800 -0.617600
vn 0.262600 -0.928500 -0.262600
vn 0.262600 -0.928500 0.262600
vn 0.228100 -0.946500 0.228100
vn -0.525300 -0.669400 -0.525300
vn 0.525300 -0.669400 -0.525300
vn 0.542600 -0.641100 0.542600
vn 0.542600 -0.641100 -0.542600
vn 0.511300 -0.690800 0.511300
vn 0.511300 -0.690800 -0.511300
vn 0.361500 -0.859500 -0.361500
vn 0.670400 0.317900 0.670400
vn 0.690100 -0.218200 0.690100
vn 0.690000 -0.218200 -0.690100
vn 0.361500 -0.859500 0.361500
vn 0.493800 -0.715700 0.493800
vn 0.493800 -0.715700 -0.493800
vn -0.687100 -0.236100 0.687100
vn -0.493800 -0.715700 0.493800
vn -0.493800 -0.715700 -0.493800
vn 0.687100 -0.236100 0.687100
vn 0.456800 -0.763300 0.456800
vn 0.456800 -0.763300 -0.456800
vn 0.375600 -0.847300 0.375500
vn 0.525300 -0.669400 0.525300
vn -0.375500 -0.847300 0.375500
vn -0.456800 -0.763300 0.456800
vn -0.456800 -0.763300 -0.456800
vn -0.375600 -0.847300 -0.375500
vn 0.375500 -0.847300 -0.375500
vn -0.511300 -0.690800 -0.511300
vn -0.361500 -0.859500 -0.361500
vn -0.690100 -0.218200 -0.690100
vn -0.670400 0.317900 -0.670400
vn 0.670400 0.317900 -0.670400
vn -0.511300 -0.690800 0.511300
vn -0.320400 -0.891400 -0.320400
vn -0.148100 0.977800 -0.148100
vn -0.148100 0.977800 0.148100
vn 0.148100 0.977800 0.148100
vn -0.262600 -0.928500 -0.262600
vn -0.262600 -0.928500 0.262600
vn -0.525300 -0.669400 0.525300
vn -0.320400 -0.891400 0.320400
vn -0.617600 -0.486800 0.617700
vn -0.617700 -0.486800 -0.617600
vn -0.228100 -0.946500 0.228100
vn -0.542600 -0.641100 0.542600
vn -0.228100 -0.946500 -0.228100
vn -0.690000 -0.218200 0.690100
vn -0.361500 -0.859500 0.361500
vn -0.670400 0.317900 0.670400
vn -0.542600 -0.641100 -0.542600
vn 0.687100 0.236100 0.687100
vn 0.617700 -0.486800 0.617700
vn 0.228100 -0.946500 -0.228100
vn 0.687100 -0.236100 -0.687100
vn -0.148100 -0.977800 0.148100
vn -0.148100 -0.977800 -0.148100
vn 0.148100 -0.977800 -0.148100
vn -0.687100 0.236100 -0.687100
vn 0.687100 0.236100 -0.687100
vn -0.687100 0.236100 0.687100
vn 0.497500 0.710600 0.497500
vn 0.497500 0.710600 -0.497500
vn 0.497500 -0.710600 0.497500
vn 0.497500 -0.710600 -0.497500
vn 0.148100 -0.977800 0.148100
vn -0.497500 0.710600 0.497500
vn -0.497500 0.710600 -0.497500
vn -0.497500 -0.710600 0.497500
vn -0.497500 -0.710600 -0.497500
vn -0.687100 -0.236100 -0.687100
vn 0.148100 0.977800 -0.148100
s 1
f 8/1/1 21/2/2 20/3/3
f 17/4/4 4/5/5 9/6/6
f 42/7/7 16/8/8 17/9/4
f 9/6/6 5/10/9 18/11/10
f 12/12/11 25/13/12 24/14/13
f 10/15/14 6/16/15 19/17/16
f 19/17/16 6/16/15 11/18/17
f 18/11/10 5/10/9 10/15/14
f 13/19/18 26/20/19 25/13/12
f 65/21/20 39/22/21 52/23/22
f 65/24/20 54/25/23 13/26/18
f 8/1/1 1/27/24 14/28/25
f 2/29/26 3/30/27 16/31/8
f 28/32/28 27/33/29 40/34/30
f 3/30/27 4/5/5 17/4/4
f 41/35/31 15/36/32 16/8/8
f 25/37/12 51/38/33 50/39/34
f 45/40/35 49/41/36 23/42/37
f 38/43/38 12/44/11 11/45/17
f 1/27/24 2/29/26 15/46/32
f 38/43/38 39/47/21 13/48/18
f 47/49/39 21/50/2 14/51/25
f 75/52/40 68/53/41 57/54/42
f 43/55/43 30/56/44 29/57/45
f 34/58/46 33/59/47 46/60/48
f 35/61/49 30/56/44 43/55/43
f 29/62/45 3/63/27 2/64/26
f 31/65/50 35/61/49 48/66/51
f 32/67/52 37/68/53 11/45/17
f 37/69/53 50/39/34 51/38/33
f 32/70/52 36/71/54 49/41/36
f 32/70/52 45/40/35 50/39/34
f 36/71/54 31/65/50 44/72/55
f 38/73/38 51/38/33 52/74/22
f 29/57/45 28/32/28 41/35/31
f 33/75/47 34/76/46 8/77/1
f 56/78/56 7/79/57 20/80/3
f 48/66/51 22/81/58 18/82/10
f 28/83/28 2/64/26 1/84/24
f 52/85/22 26/86/19 59/87/59
f 44/72/55 18/82/10 23/42/37
f 27/88/29 1/84/24 8/77/1
f 51/38/33 25/37/12 26/89/19
f 66/90/60 71/91/61 60/92/62
f 40/34/30 14/51/25 15/36/32
f 32/67/52 6/93/15 10/94/14
f 36/95/54 10/94/14 5/96/9
f 43/55/43 17/9/4 22/81/58
f 33/97/47 7/98/57 56/99/56
f 47/49/39 46/60/48 20/100/3
f 35/101/49 31/102/50 5/96/9
f 35/101/49 9/103/6 4/104/5
f 50/39/34 45/40/35 19/105/16
f 46/106/48 74/107/63 63/108/64
f 30/109/44 4/104/5 3/63/27
f 27/33/29 34/58/46 47/49/39
f 69/110/65 74/111/63 46/112/48
f 57/52/42 58/113/66 64/114/67
f 56/78/56 63/115/64 64/114/67
f 55/116/68 61/117/69 59/118/59
f 53/119/70 60/92/62 61/117/69
f 70/120/71 76/121/72 74/111/63
f 68/122/41 75/54/40 76/121/72
f 67/123/73 73/124/74 71/91/61
f 65/21/20 72/125/75 73/124/74
f 71/91/61 73/126/74 61/127/69
f 72/128/75 59/87/59 61/127/69
f 76/129/72 64/130/67 63/108/64
f 75/54/40 62/53/76 64/130/67
f 67/131/73 55/132/68 54/25/23
f 67/131/73 66/90/60 53/119/70
f 70/133/71 58/134/66 57/52/42
f 69/135/65 56/99/56 58/134/66
f 13/136/18 54/137/23 59/118/59
f 7/138/57 8/1/1 20/3/3
f 22/139/58 17/4/4 9/6/6
f 43/55/43 42/7/7 17/9/4
f 22/139/58 9/6/6 18/11/10
f 11/18/17 12/12/11 24/14/13
f 23/140/37 10/15/14 19/17/16
f 24/14/13 19/17/16 11/18/17
f 23/140/37 18/11/10 10/15/14
f 12/12/11 13/19/18 25/13/12
f 72/125/75 65/21/20 52/23/22
f 39/141/21 65/24/20 13/26/18
f 21/2/2 8/1/1 14/28/25
f 15/46/32 2/29/26 16/31/8
f 41/35/31 28/32/28 40/34/30
f 16/31/8 3/30/27 17/4/4
f 42/7/7 41/35/31 16/8/8
f 24/142/13 25/37/12 50/39/34
f 19/105/16 45/40/35 23/42/37
f 37/68/53 38/43/38 11/45/17
f 14/28/25 1/27/24 15/46/32
f 12/44/11 38/43/38 13/48/18
f 40/34/30 47/49/39 14/51/25
f 62/122/76 75/52/40 57/54/42
f 42/7/7 43/55/43 29/57/45
f 47/49/39 34/58/46 46/60/48
f 48/66/51 35/61/49 43/55/43
f 28/83/28 29/62/45 2/64/26
f 44/72/55 31/65/50 48/66/51
f 6/93/15 32/67/52 11/45/17
f 38/73/38 37/69/53 51/38/33
f 45/40/35 32/70/52 49/41/36
f 37/69/53 32/70/52 50/39/34
f 49/41/36 36/71/54 44/72/55
f 39/143/21 38/73/38 52/74/22
f 42/7/7 29/57/45 41/35/31
f 7/144/57 33/75/47 8/77/1
f 63/115/64 56/78/56 20/80/3
f 44/72/55 48/66/51 18/82/10
f 27/88/29 28/83/28 1/84/24
f 72/128/75 52/85/22 59/87/59
f 49/41/36 44/72/55 23/42/37
f 34/76/46 27/88/29 8/77/1
f 52/74/22 51/38/33 26/89/19
f 53/119/70 66/90/60 60/92/62
f 41/35/31 40/34/30 15/36/32
f 36/95/54 32/67/52 10/94/14
f 31/102/50 36/95/54 5/96/9
f 48/66/51 43/55/43 22/81/58
f 69/135/65 33/97/47 56/99/56
f 21/50/2 47/49/39 20/100/3
f 9/103/6 35/101/49 5/96/9
f 30/109/44 35/101/49 4/104/5
f 24/142/13 50/39/34 19/105/16
f 20/145/3 46/106/48 63/108/64
f 29/62/45 30/109/44 3/63/27
f 40/34/30 27/33/29 47/49/39
f 33/146/47 69/110/65 46/112/48
f 62/53/76 57/52/42 64/114/67
f 58/113/66 56/78/56 64/114/67
f 54/137/23 55/116/68 59/118/59
f 55/116/68 53/119/70 61/117/69
f 69/110/65 70/120/71 74/111/63
f 70/120/71 68/122/41 76/121/72
f 66/90/60 67/123/73 71/91/61
f 67/123/73 65/21/20 73/124/74
f 60/92/62 71/91/61 61/127/69
f 73/126/74 72/128/75 61/127/69
f 74/107/63 76/129/72 63/108/64
f 76/129/72 75/54/40 64/130/67
f 65/24/20 67/131/73 54/25/23
f 55/132/68 67/131/73 53/119/70
f 68/122/41 70/133/71 57/52/42
f 70/133/71 69/135/65 58/134/66
f 26/147/19 13/136/18 59/118/59