# Alias Wavefront OBJ File Exported from SketchUp
# with OBJexporter (c) 2013 TIG
# Units = meters

mtllib nog_sheet_mini.mtl

g nog_sheet_mini-SKP-SketchUV_Texture
usemtl SketchUV_Texture
v 9.66962328159 -0.129746375 -2.88392273311
v -9.66962328159 -0.129746375 2.88392273311
v -9.66962328159 -0.129746375 -2.88392273311
v 9.66962328159 -0.129746375 2.88392273311
v -9.66962328159 0.129746375 -2.88392273311
v -9.66962328159 0.129746375 2.88392273311
v 9.66962328159 0.129746375 2.88392273311
v 9.66962328159 0.129746375 -2.88392273311
vt 0 0.298245614035
vt 1 2.77555756156e-17
vt 1 0.298245614035
vt 0 2.77555756156e-17
vt -5.55111512313e-17 0.0134179348276
vt 0.298245614035 8.67361737988e-19
vt 0.298245614035 0.0134179348276
vt -5.55111512313e-17 8.67361737988e-19
vt 1 0.0134179348276
vt -1.66533453694e-16 -1.73472347598e-18
vt 1 -1.73472347598e-18
vt -1.66533453694e-16 0.0134179348276
vt -1.11022302463e-16 0
vt 1 0
vt 5.55111512313e-17 0.0134179348276
vt 1 -6.07153216592e-18
vt 0.701754385965 0.0134179348276
vt 0.701754385965 -6.07153216592e-18
vt -1.66533453694e-16 1
vt 1 0.701754385965
vt 1 1
vt -1.66533453694e-16 0.701754385965
vn 0 -1 0
vn -1 0 0
vn 0 0 1
vn 0 0 -1
vn 1 0 0
vn 0 1 0
f 1/1/1 2/2/1 3/3/1
f 2/2/1 1/1/1 4/4/1
f 5/5/2 2/6/2 6/7/2
f 2/6/2 5/5/2 3/8/2
f 7/9/3 2/10/3 4/11/3
f 2/10/3 7/9/3 6/12/3
f 5/9/4 1/13/4 3/14/4
f 1/13/4 5/9/4 8/15/4
f 1/16/5 7/17/5 4/18/5
f 7/17/5 1/16/5 8/9/5
f 7/19/6 5/20/6 6/21/6
f 5/20/6 7/19/6 8/22/6

#EOF