# Alias Wavefront OBJ File Exported from SketchUp
# with OBJexporter (c) 2013 TIG
# Units = meters

mtllib kdm_gamebox.mtl

g gamebox-COM-Component_3-4183-SketchUV_Texture
usemtl SketchUV_Texture
v 18.5023125 6.12536875 36.58155625
v -18.5023125 -6.12536875 36.58155625
v 18.5023125 -6.12536875 36.58155625
v -18.5023125 6.12536875 36.58155625
v -18.5023125 6.12536875 -36.58155625
v 18.5023125 -6.12536875 -36.58155625
v -18.5023125 -6.12536875 -36.58155625
v 18.5023125 6.12536875 -36.58155625
vt 0.505782541715 0.167444181656
vt 3.94686007669e-17 -3.94686007669e-17
vt 0.505782541715 -6.86805389289e-17
vt 3.94686007669e-17 0.167444181656
vt 1 0.167444181656
vt 0.494217458285 -6.80125868465e-17
vt 1 -9.72245250084e-17
vt 0.494217458285 0.167444181656
vt 0.505782541715 -2.22044604925e-16
vt 1.45832071415e-15 1
vt 1.46033822838e-15 -2.22044604925e-16
vt 0.505782541715 1
vt 1 -1.93447879702e-17
vt 0 0.167444181656
vt 0 9.86715019173e-18
vt 0.505782541715 0
vt -9.86715019173e-17 1
vt 0 0
vt 1 1.33096373993e-17
vt 0 -1.97343003835e-17
vn 0 0 1
vn 0 0 -1
vn 0 -1 0
vn 1 0 0
vn 0 1 0
vn -1 0 0
f 1/1/1 2/2/1 3/3/1
f 2/2/1 1/1/1 4/4/1
f 5/5/2 6/6/2 7/7/2
f 6/6/2 5/5/2 8/8/2
f 6/9/3 2/10/3 7/11/3
f 2/10/3 6/9/3 3/12/3
f 6/13/4 1/14/4 3/15/4
f 1/14/4 6/13/4 8/5/4
f 1/16/5 5/17/5 4/18/5
f 5/17/5 1/16/5 8/12/5
f 5/14/6 2/19/6 4/5/6
f 2/19/6 5/14/6 7/20/6

#EOF