v 0.000082 0.031248 0.058978
v 0.073087 0.031248 0.118852
v 0.058991 0.031248 0.000000
v 0.152593 0.031248 0.000000
v 0.000082 0.031248 -0.058978
v 0.073087 0.031248 -0.118852
v 0.000082 0.031248 -0.245608
v 0.004647 0.031248 -0.245608
v 0.004647 0.031248 0.245608
v 0.000082 0.031248 0.245608
v 0.251070 0.031248 -0.004910
v 0.251070 0.031248 0.004910
v 0.040242 0.031248 -0.045147
v 0.128888 0.031248 -0.068681
v 0.040242 0.031248 0.045147
v 0.128888 0.031248 0.068681
v 0.251947 0.031248 0.000000
v -0.040079 0.031248 0.045147
v -0.128724 0.031248 0.068681
v -0.152430 0.031248 0.000000
v -0.058827 0.031248 0.000000
v -0.040079 0.031248 -0.045147
v -0.128724 0.031248 -0.068681
v -0.072924 0.031248 -0.118852
v -0.004483 0.031248 -0.245608
v -0.072924 0.031248 0.118852
v -0.004483 0.031248 0.245608
v -0.250906 0.031248 -0.004910
v -0.251783 0.031248 0.000000
v -0.250906 0.031248 0.004910
v 0.040242 -0.031247 0.045147
v 0.128888 -0.031247 0.068681
v 0.152593 -0.031247 0.000000
v 0.058991 -0.031247 0.000000
v 0.040242 -0.031247 -0.045147
v 0.128888 -0.031247 -0.068681
v 0.073087 -0.031247 -0.118852
v 0.000082 -0.031247 -0.058978
v 0.004647 -0.031247 -0.245608
v 0.000082 -0.031247 -0.245608
v 0.073087 -0.031247 0.118852
v 0.000082 -0.031247 0.058978
v 0.000082 -0.031247 0.245608
v 0.004647 -0.031247 0.245608
v 0.251070 -0.031247 -0.004910
v 0.251947 -0.031247 0.000000
v 0.251070 -0.031247 0.004910
v -0.040079 -0.031247 0.045147
v -0.058827 -0.031247 0.000000
v -0.152430 -0.031247 0.000000
v -0.128724 -0.031247 0.068681
v -0.040079 -0.031247 -0.045147
v -0.072924 -0.031247 -0.118852
v -0.128724 -0.031247 -0.068681
v -0.004483 -0.031247 -0.245608
v -0.072924 -0.031247 0.118852
v -0.004483 -0.031247 0.245608
v -0.250906 -0.031247 -0.004910
v -0.251783 -0.031247 0.000000
v -0.250906 -0.031247 0.004910
vt 0.007810 0.007810
vt 0.117180 0.007810
vt 0.117180 0.117180
vt 0.007810 0.117180
vt 0.132810 0.007810
vt 0.242180 0.007810
vt 0.242180 0.117180
vt 0.132810 0.117180
vt 0.257810 0.007810
vt 0.367180 0.007810
vt 0.367180 0.117180
vt 0.257810 0.117180
vt 0.382810 0.007810
vt 0.492180 0.007810
vt 0.492180 0.117180
vt 0.382810 0.117180
vt 0.507810 0.007810
vt 0.617180 0.007810
vt 0.617180 0.117180
vt 0.507810 0.117180
vt 0.632810 0.007810
vt 0.742180 0.007810
vt 0.742180 0.117180
vt 0.632810 0.117180
vt 0.757810 0.007810
vt 0.867180 0.007810
vt 0.867180 0.117180
vt 0.757810 0.117180
vt 0.882810 0.007810
vt 0.992180 0.007810
vt 0.992180 0.117180
vt 0.882810 0.117180
vt 0.007810 0.132810
vt 0.117180 0.132810
vt 0.117180 0.242180
vt 0.007810 0.242180
vt 0.132810 0.132810
vt 0.242180 0.132810
vt 0.242180 0.242180
vt 0.132810 0.242180
vt 0.257810 0.132810
vt 0.367180 0.132810
vt 0.367180 0.242180
vt 0.257810 0.242180
vt 0.382810 0.132810
vt 0.492180 0.132810
vt 0.492180 0.242180
vt 0.382810 0.242180
vt 0.507810 0.132810
vt 0.617180 0.132810
vt 0.617180 0.242180
vt 0.507810 0.242180
vt 0.632810 0.132810
vt 0.742180 0.132810
vt 0.742180 0.242180
vt 0.632810 0.242180
vt 0.757810 0.132810
vt 0.867180 0.132810
vt 0.867180 0.242180
vt 0.757810 0.242180
vt 0.882810 0.132810
vt 0.992180 0.132810
vt 0.992180 0.242180
vt 0.882810 0.242180
vt 0.007810 0.257810
vt 0.117180 0.257810
vt 0.117180 0.367180
vt 0.007810 0.367180
vt 0.132810 0.257810
vt 0.242180 0.257810
vt 0.242180 0.367180
vt 0.132810 0.367180
vt 0.257810 0.257810
vt 0.367180 0.257810
vt 0.367180 0.367180
vt 0.257810 0.367180
vt 0.382810 0.257810
vt 0.492180 0.257810
vt 0.492180 0.367180
vt 0.382810 0.367180
vt 0.507810 0.257810
vt 0.617180 0.257810
vt 0.617180 0.367180
vt 0.507810 0.367180
vt 0.632810 0.257810
vt 0.742180 0.257810
vt 0.742180 0.367180
vt 0.632810 0.367180
vt 0.757810 0.257810
vt 0.867180 0.257810
vt 0.867180 0.367180
vt 0.757810 0.367180
vt 0.882810 0.257810
vt 0.992180 0.257810
vt 0.992180 0.367180
vt 0.882810 0.367180
vt 0.007810 0.382810
vt 0.117180 0.382810
vt 0.117180 0.492180
vt 0.007810 0.492180
vt 0.132810 0.382810
vt 0.242180 0.382810
vt 0.242180 0.492180
vt 0.132810 0.492180
vt 0.257810 0.382810
vt 0.367180 0.382810
vt 0.367180 0.492180
vt 0.257810 0.492180
vt 0.382810 0.382810
vt 0.492180 0.382810
vt 0.492180 0.492180
vt 0.382810 0.492180
vt 0.507810 0.382810
vt 0.617180 0.382810
vt 0.617180 0.492180
vt 0.507810 0.492180
vt 0.632810 0.382810
vt 0.742180 0.382810
vt 0.742180 0.492180
vt 0.632810 0.492180
vt 0.757810 0.382810
vt 0.867180 0.382810
vt 0.867180 0.492180
vt 0.757810 0.492180
vt 0.882810 0.382810
vt 0.992180 0.382810
vt 0.992180 0.492180
vt 0.882810 0.492180
vt 0.007810 0.507810
vt 0.117180 0.507810
vt 0.117180 0.617180
vt 0.007810 0.617180
vt 0.132810 0.507810
vt 0.242180 0.507810
vt 0.242180 0.617180
vt 0.132810 0.617180
vt 0.257810 0.507810
vt 0.367180 0.507810
vt 0.367180 0.617180
vt 0.257810 0.617180
vt 0.382810 0.507810
vt 0.492180 0.507810
vt 0.492180 0.617180
vt 0.382810 0.617180
vt 0.507810 0.507810
vt 0.617180 0.507810
vt 0.617180 0.617180
vt 0.507810 0.617180
vt 0.632810 0.507810
vt 0.742180 0.507810
vt 0.742180 0.617180
vt 0.632810 0.617180
vt 0.757810 0.507810
vt 0.867180 0.507810
vt 0.867180 0.617180
vt 0.757810 0.617180
vt 0.882810 0.507810
vt 0.992180 0.507810
vt 0.992180 0.617180
vt 0.882810 0.617180
vt 0.007810 0.632810
vt 0.117180 0.632810
vt 0.117180 0.742180
vt 0.007810 0.742180
vt 0.132810 0.632810
vt 0.242180 0.632810
vt 0.242180 0.742180
vt 0.132810 0.742180
vt 0.257810 0.632810
vt 0.367180 0.632810
vt 0.367180 0.742180
vt 0.257810 0.742180
vt 0.382810 0.632810
vt 0.492180 0.632810
vt 0.492180 0.742180
vt 0.382810 0.742180
vt 0.507810 0.632810
vt 0.617180 0.632810
vt 0.617180 0.742180
vt 0.507810 0.742180
vt 0.632810 0.632810
vt 0.742180 0.632810
vt 0.742180 0.742180
vt 0.632810 0.742180
vt 0.757810 0.632810
vt 0.867180 0.632810
vt 0.867180 0.742180
vt 0.757810 0.742180
vt 0.882810 0.632810
vt 0.992180 0.632810
vt 0.992180 0.742180
vt 0.882810 0.742180
vt 0.007810 0.757810
vt 0.117180 0.757810
vt 0.117180 0.867180
vt 0.007810 0.867180
vt 0.132810 0.757810
vt 0.242180 0.757810
vt 0.242180 0.867180
vt 0.132810 0.867180
vt 0.257810 0.757810
vt 0.367180 0.757810
vt 0.367180 0.867180
vt 0.257810 0.867180
vt 0.382810 0.757810
vt 0.492180 0.757810
vt 0.492180 0.867180
vt 0.382810 0.867180
vt 0.507810 0.757810
vt 0.617180 0.757810
vt 0.617180 0.867180
vt 0.507810 0.867180
vt 0.632810 0.757810
vt 0.742180 0.757810
vt 0.742180 0.867180
vt 0.632810 0.867180
vt 0.757810 0.757810
vt 0.867180 0.757810
vt 0.867180 0.867180
vt 0.757810 0.867180
vt 0.882810 0.757810
vt 0.992180 0.757810
vt 0.992180 0.867180
vt 0.882810 0.867180
vt 0.007810 0.882810
vt 0.117180 0.882810
vt 0.117180 0.992180
vt 0.007810 0.992180
vt 0.132810 0.882810
vt 0.242180 0.882810
vt 0.242180 0.992180
vt 0.132810 0.992180
vt 0.257810 0.882810
vt 0.367180 0.882810
vt 0.367180 0.992180
vt 0.257810 0.992180
vt 0.382810 0.882810
vt 0.492180 0.882810
vt 0.492180 0.992180
vt 0.382810 0.992180
vn 0.000000 1.000000 0.000000
vn 0.000000 1.000000 0.000000
vn 0.000000 1.000000 0.000000
vn 0.000000 1.000000 0.000000
vn 0.000000 1.000000 0.000000
vn 0.000000 1.000000 -0.000000
vn 0.000000 1.000000 -0.000000
vn 0.000000 1.000000 -0.000000
vn 0.000000 1.000000 -0.000000
vn 0.000000 1.000000 -0.000000
vn 0.000000 1.000000 0.000000
vn 0.000000 1.000000 0.000000
vn 0.000000 1.000000 0.000000
vn 0.000000 1.000000 0.000000
vn 0.000000 1.000000 -0.000000
vn 0.000000 1.000000 -0.000000
vn 0.000000 1.000000 0.000000
vn 0.000000 1.000000 0.000000
vn 0.000000 1.000000 0.000000
vn 0.000000 1.000000 0.000000
vn 0.000000 1.000000 0.000000
vn 0.000000 1.000000 -0.000000
vn 0.000000 1.000000 -0.000000
vn 0.000000 1.000000 -0.000000
vn 0.000000 1.000000 -0.000000
vn 0.000000 1.000000 0.000000
vn 0.000000 1.000000 0.000000
vn 0.000000 1.000000 -0.000000
vn 0.000000 1.000000 0.000000
vn 0.000000 1.000000 0.000000
vn 0.000000 -1.000000 0.000000
vn 0.000000 -1.000000 0.000000
vn 0.000000 -1.000000 -0.000000
vn 0.000000 -1.000000 0.000000
vn 0.000000 -1.000000 -0.000000
vn 0.000000 -1.000000 -0.000000
vn 0.000000 -1.000000 -0.000000
vn 0.000000 -1.000000 -0.000000
vn 0.000000 -1.000000 0.000000
vn 0.000000 -1.000000 0.000000
vn 0.000000 -1.000000 0.000000
vn 0.000000 -1.000000 0.000000
vn 0.000000 -1.000000 0.000000
vn 0.000000 -1.000000 0.000000
vn 0.000000 -1.000000 -0.000000
vn 0.000000 -1.000000 -0.000000
vn 0.000000 -1.000000 0.000000
vn 0.000000 -1.000000 0.000000
vn 0.000000 -1.000000 0.000000
vn 0.000000 -1.000000 0.000000
vn 0.000000 -1.000000 0.000000
vn 0.000000 -1.000000 -0.000000
vn 0.000000 -1.000000 -0.000000
vn 0.000000 -1.000000 -0.000000
vn 0.000000 -1.000000 0.000000
vn 0.000000 -1.000000 0.000000
vn 0.000000 -1.000000 0.000000
vn 0.000000 -1.000000 -0.000000
vn 0.000000 -1.000000 0.000000
vn 0.000000 -1.000000 0.000000
vn 0.377248 0.000000 -0.926112
vn 0.883764 0.000000 -0.467933
vn 0.883764 0.000000 -0.467933
vn 0.377248 0.000000 -0.926112
vn 0.000000 0.000000 -1.000000
vn 0.000000 0.000000 -1.000000
vn -0.377248 0.000000 -0.926112
vn -0.377248 0.000000 -0.926112
vn -0.883763 0.000000 -0.467935
vn -0.883763 0.000000 -0.467935
vn -1.000000 0.000000 0.000000
vn -1.000000 0.000000 0.000000
vn -0.883763 0.000000 0.467935
vn -0.883763 0.000000 0.467935
vn -0.377248 0.000000 0.926112
vn -0.377248 0.000000 0.926112
vn 0.000000 0.000000 1.000000
vn 0.377248 0.000000 0.926112
vn 0.377248 0.000000 0.926112
vn 0.000000 0.000000 1.000000
vn 0.883764 0.000000 0.467933
vn 0.883764 0.000000 0.467933
vn 1.000000 0.000000 0.000000
vn 1.000000 0.000000 0.000000
vn -0.684872 0.000000 -0.728664
vn -1.000000 0.000000 0.000000
vn -1.000000 0.000000 0.000000
vn -0.684872 0.000000 -0.728664
vn -0.684872 0.000000 0.728664
vn -0.684872 0.000000 0.728664
vn -0.000004 0.000000 -1.000000
vn -0.000004 0.000000 -1.000000
vn 0.684876 0.000000 -0.728660
vn 0.684876 0.000000 -0.728660
vn 1.000000 0.000000 0.000000
vn 1.000000 0.000000 0.000000
vn 0.684876 0.000000 0.728660
vn 0.684876 0.000000 0.728660
vn -0.000004 0.000000 1.000000
vn -0.000004 0.000000 1.000000
s 1
f 15/1/1 16/2/2 4/3/3 3/4/4
f 13/5/5 14/6/6 6/7/7 5/8/8
f 5/9/8 6/10/7 8/11/9 7/12/10
f 2/13/11 1/14/12 10/15/13 9/16/14
f 14/17/6 11/18/15 8/19/9 6/20/7
f 3/21/4 4/22/3 14/23/6 13/24/5
f 1/25/12 2/26/11 16/27/2 15/28/1
f 4/29/3 17/30/16 11/31/15 14/32/6
f 12/33/17 16/34/2 2/35/11 9/36/14
f 4/37/3 16/38/2 12/39/17 17/40/16
f 18/41/18 21/42/19 20/43/20 19/44/21
f 22/45/22 5/46/8 24/47/23 23/48/24
f 5/49/8 7/50/10 25/51/25 24/52/23
f 26/53/26 27/54/27 10/55/13 1/56/12
f 23/57/24 24/58/23 25/59/25 28/60/28
f 21/61/19 22/62/22 23/63/24 20/64/20
f 1/65/12 18/66/18 19/67/21 26/68/26
f 20/69/20 23/70/24 28/71/28 29/72/29
f 30/73/30 27/74/27 26/75/26 19/76/21
f 20/77/20 29/78/29 30/79/30 19/80/21
s 3
f 31/81/31 34/82/32 33/83/33 32/84/34
f 35/85/35 38/86/36 37/87/37 36/88/38
f 38/89/36 40/90/39 39/91/40 37/92/37
f 41/93/41 44/94/42 43/95/43 42/96/44
f 36/97/38 37/98/37 39/99/40 45/100/45
f 34/101/32 35/102/35 36/103/38 33/104/33
f 42/105/44 31/106/31 32/107/34 41/108/41
f 33/109/33 36/110/38 45/111/45 46/112/46
f 47/113/47 44/114/42 41/115/41 32/116/34
f 33/117/33 46/118/46 47/119/47 32/120/34
f 48/121/48 51/122/49 50/123/50 49/124/51
f 52/125/52 54/126/53 53/127/54 38/128/36
f 38/129/36 53/130/54 55/131/55 40/132/39
f 56/133/56 42/134/44 43/135/43 57/136/57
f 54/137/53 58/138/58 55/139/55 53/140/54
f 49/141/51 50/142/50 54/143/53 52/144/52
f 42/145/44 56/146/56 51/147/49 48/148/48
f 50/149/50 59/150/59 58/151/58 54/152/53
f 60/153/60 51/154/49 56/155/56 57/156/57
f 50/157/50 51/158/49 60/159/60 59/160/59
s 7
f 8/161/61 11/162/62 45/163/63 39/164/64
f 7/165/65 8/166/61 39/167/64 40/168/66
f 25/169/67 7/170/65 40/171/66 55/172/68
f 28/173/69 25/174/67 55/175/68 58/176/70
f 29/177/71 28/178/69 58/179/70 59/180/72
f 30/181/73 29/182/71 59/183/72 60/184/74
f 27/185/75 30/186/73 60/187/74 57/188/76
f 43/189/77 44/190/78 9/191/79 10/192/80
f 57/193/76 43/194/77 10/195/80 27/196/75
f 44/197/78 47/198/81 12/199/82 9/200/79
f 46/201/83 45/202/63 11/203/62 17/204/84
f 47/205/81 46/206/83 17/207/84 12/208/82
s 9
f 15/209/85 3/210/86 34/211/87 31/212/88
f 3/213/86 13/214/89 35/215/90 34/216/87
f 1/217/91 15/218/85 31/219/88 42/220/92
f 18/221/93 1/222/91 42/223/92 48/224/94
f 21/225/95 18/226/93 48/227/94 49/228/96
f 22/229/97 21/230/95 49/231/96 52/232/98
f 52/233/98 38/234/99 5/235/100 22/236/97
f 38/237/99 35/238/90 13/239/89 5/240/100