# Alias Wavefront OBJ File Exported from SketchUp
# with OBJexporter (c) 2013 TIG
# Units = meters

mtllib kdm_model_charsheet_tiny_40.mtl

g charsheet_tiny-GRP-Untitled-SKP-SketchUV_Texture-4181-SketchUV_Texture
usemtl SketchUV_Texture
v -5.63058925057 0.129746375 -6.67768174976
v 5.63058925057 0.129746375 -12.5124205568
v -5.63058925057 0.129746375 -12.5124205568
v 5.63058925057 0.129746375 -6.67768174976
v 5.63058925057 -0.129746375 -12.5124205568
v -5.63058925057 -0.129746375 -12.5124205568
v 5.63058925057 -0.129746375 -6.67768174976
v -5.63058925057 -0.129746375 -6.67768174976
vt -0.451706438565 0.76684212377
vt -0.00170643856424 1
vt -0.451706438565 1
vt -0.00170643856424 0.76684212377
vt 0.549999999999 3.82506526453e-16
vt 1 0.0103694064958
vt 0.549999999999 0.0103694064958
vt 1 3.82506526453e-16
vt 1 3.71230823859e-16
vt 0.76684212377 0.0103694064958
vt 0.76684212377 -1.12757025938e-16
vt 0.23315787623 0.0103694064958
vt -1.11022302463e-16 3.81639164715e-16
vt 0.23315787623 -1.01481323345e-16
vt -1.11022302463e-16 0.0103694064958
vt 0.450000000001 0.23315787623
vt 5.55111512313e-17 0
vt 0.450000000001 0
vt 5.55111512313e-17 0.23315787623
vn 8.41985770514e-33 1 3.83148421705e-16
vn 0 3.82856869893e-16 -1
vn 1 0 0
vn -1 0 0
vn 1.40330961752e-32 -1 -3.83148421705e-16
f 1/1/1 2/2/1 3/3/1
f 2/2/1 1/1/1 4/4/1
f 5/5/2 3/6/2 2/7/2
f 5/5/2 6/8/2 3/6/2
f 5/9/3 4/10/3 7/11/3
f 4/10/3 5/9/3 2/6/3
f 1/12/4 6/13/4 8/14/4
f 6/13/4 1/12/4 3/15/4
f 7/16/5 6/17/5 5/18/5
f 6/17/5 7/16/5 8/19/5

g charsheet_tiny-GRP-Untitled-SKP-SketchUV_Texture-4181-Default_Material
usemtl Default_Material
vt 221.676742148 -5.108125
vt -221.676742148 5.108125
vt -221.676742148 -5.108125
vt 221.676742148 5.108125
vn -2.79121843496e-18 1.81727021799e-15 1
f 7/20/6 1/21/6 8/22/6
f 1/21/6 7/20/6 4/23/6

#EOF