# Alias Wavefront OBJ File Exported from SketchUp
# with OBJexporter (c) 2013 TIG
# Units = meters

mtllib manual.mtl

g manual-GRP-4177-SketchUV_Texture
usemtl SketchUV_Texture
v -0.761210799373 0.0149621875 -0.575368319058
v -0.761210799373 -0.0149621875 0.575368319058
v -0.761210799373 0.0149621875 0.575368319058
v -0.761210799373 -0.0149621875 -0.575368319058
v 0.761210799373 -0.0149621875 -0.575368319058
v 0.761210799373 0.0149621875 -0.575368319058
v 0.761210799373 0.0149621875 0.575368319058
v 0.761210799373 -0.0149621875 0.575368319058
vt 0.244140625 3.7708530341e-05
vt 1 -0.01961806555
vt 1 3.7708530341e-05
vt 0.244140625 -0.01961806555
vt 1 0.0196557740803
vt 0 4.36445859017e-19
vt 1 4.36445859017e-19
vt -4.4408920985e-16 0.0196557740803
vt 0.755859375 -2.28261184266e-16
vt 2.838568332e-16 0.0196557740803
vt 3.07257884748e-16 -2.28261184266e-16
vt 0.755859375 0.0196557740803
vt 1 0.244140625
vt -2.20323328918e-16 1
vt -5.37898752241e-17 0.244140625
vt 1 1
vt 1 0.244642576854
vt 4.39399538675e-16 1.00050195185
vt 7.19413708833e-16 0.244642576854
vt 1 1.00050195185
vt 5.58650699541e-17 2.18222929508e-18
vt 1 2.18222929508e-18
vt -3.16954857983e-16 0.0196557740803
vn -1 0 0
vn 0 0 -1
vn 1 0 0
vn 0 -1 0
vn 0 1 0
vn 0 0 1
f 1/1/1 2/2/1 3/3/1
f 2/2/1 1/1/1 4/4/1
f 1/5/2 5/6/2 4/7/2
f 5/6/2 1/5/2 6/8/2
f 5/9/3 7/10/3 8/11/3
f 7/10/3 5/9/3 6/12/3
f 5/13/4 2/14/4 4/15/4
f 2/14/4 5/13/4 8/16/4
f 7/17/5 1/18/5 3/19/5
f 1/18/5 7/17/5 6/20/5
f 7/5/6 2/21/6 8/22/6
f 2/21/6 7/5/6 3/23/6

#EOF