# Blender v2.76 (sub 0) OBJ File: 'TS_tables.blend'
# www.blender.org
mtllib TS_table_RPG_tablet_Phys.mtl
o Cube.002_Cube.004
v -34.386887 -0.578718 25.387022
v -34.386887 1.598126 25.387022
v -34.386887 -0.578718 -25.387259
v -34.386887 1.598126 -25.387259
v 34.386887 -0.578718 25.387022
v 34.386887 1.598126 25.387022
v 34.386887 -0.578718 -25.387259
v 34.386887 1.598126 -25.387259
v -36.529499 -0.578718 27.532745
v -36.529499 1.598126 27.532745
v -36.529499 -0.578718 -27.532982
v -36.529499 1.598126 -27.532982
v 36.529499 -0.578718 27.532745
v 36.529499 1.598126 27.532745
v 36.529499 -0.578718 -27.532982
v 36.529499 1.598126 -27.532982
vt 0.299317 0.398242
vt 0.299317 0.348233
vt 0.882543 0.348233
vt 0.882543 0.398242
vt 0.145211 0.164610
vt 0.145211 0.213426
vt 0.964379 0.213426
vt 0.964379 0.164610
vt 0.963187 0.577008
vt 0.169154 0.577008
vt 0.144417 0.626555
vt 0.987925 0.626555
vt 0.331830 0.661384
vt 0.885635 0.661384
vt 0.909039 0.708124
vt 0.308426 0.708124
vt 0.169235 0.268113
vt 0.940356 0.268113
vt 0.940356 0.219298
vt 0.169235 0.219298
vt 0.274670 0.330034
vt 0.274670 0.280024
vt 0.907190 0.280024
vt 0.907190 0.330034
vn 0.301500 0.904500 -0.301500
vn 0.301500 -0.904500 -0.301500
vn 0.301500 -0.904500 0.301500
vn 0.301500 0.904500 0.301500
vn -0.577300 -0.577300 -0.577300
vn -0.577300 0.577300 -0.577300
vn 0.577300 0.577300 -0.577300
vn 0.577300 -0.577300 -0.577300
vn -0.301500 0.904500 -0.301500
vn -0.577300 0.577300 0.577300
vn 0.577300 0.577300 0.577300
vn -0.301500 0.904500 0.301500
vn -0.301500 -0.904500 0.301500
vn -0.301500 -0.904500 -0.301500
vn -0.577300 -0.577300 0.577300
vn 0.577300 -0.577300 0.577300
usemtl Material
s 1
f 2/1/1 1/2/2 3/3/3 4/4/4
f 11/5/5 12/6/6 16/7/7 15/8/8
f 6/9/9 2/10/1 10/11/10 14/12/11
f 6/1/9 8/4/12 7/3/13 5/2/14
f 10/6/10 9/5/15 13/8/16 14/7/11
f 2/13/1 4/14/4 12/15/6 10/16/10
f 3/14/3 1/13/2 9/16/15 11/15/5
f 2/17/1 6/18/9 5/19/14 1/20/2
f 14/21/11 13/22/16 15/23/8 16/24/7
f 10/21/10 12/24/6 11/23/5 9/22/15
f 1/10/2 5/9/14 13/12/16 9/11/15
f 3/20/3 7/19/13 8/18/12 4/17/4
f 5/13/14 7/14/13 15/15/8 13/16/16
f 8/14/12 6/13/9 14/16/11 16/15/7
f 4/10/4 8/9/12 16/12/7 12/11/6
f 7/9/13 3/10/3 11/11/5 15/12/8
o Cube.003_Cube.005
v -34.387032 -0.632619 25.387022
v -34.387032 0.712269 25.387022
v -34.387032 -0.632619 -25.387259
v -34.387032 0.712269 -25.387259
v 0.000000 -0.632619 -0.000117
v 0.000000 0.712269 -0.000117
v 0.000000 -0.632619 -0.000118
v 0.000000 0.712269 -0.000118
v 34.387032 -0.632619 25.387022
v 34.387032 0.712269 25.387022
v 34.387032 -0.632619 -25.387259
v 34.387032 0.712269 -25.387259
v 0.000000 -0.632619 -0.000117
v 0.000000 0.712269 -0.000117
v 0.000000 -0.632619 -0.000118
v 0.000000 0.712269 -0.000118
vt 0.004976 0.008131
vt 0.004976 0.987560
vt 0.122057 0.760335
vt 0.122057 0.235508
vt 0.122057 0.760183
vt 0.122057 0.235356
vt 0.670496 0.987523
vt 0.556959 0.760446
vt 0.004976 0.000000
vn 0.000000 -1.000000 0.000000
vn 0.000000 1.000000 0.000000
vn -1.000000 0.000000 0.000000
vn 1.000000 0.000000 0.000000
vn 0.000000 0.000000 1.000000
vn 0.000000 0.000000 -1.000000
usemtl Material.001
s off
f 17/25/17 19/26/17 23/27/17 21/28/17
f 22/28/18 24/27/18 20/26/18 18/25/18
f 25/25/17 29/28/17 31/27/17 27/26/17
f 30/29/18 26/26/18 28/25/18 32/30/18
f 18/31/18 26/26/18 30/27/18 22/32/18
f 21/32/17 29/27/17 25/26/17 17/31/17
f 19/31/17 27/26/17 31/27/17 23/32/17
f 24/32/18 32/27/18 28/26/18 20/31/18
usemtl Material.001_NONE
f 18/33/19 20/33/19 19/33/19 17/33/19
f 24/33/20 22/33/20 21/33/20 23/33/20
f 26/33/20 25/33/20 27/33/20 28/33/20
f 32/33/19 31/33/19 29/33/19 30/33/19
f 21/33/21 22/33/21 30/33/21 29/33/21
f 18/33/21 17/33/21 25/33/21 26/33/21
f 23/33/21 31/33/21 32/33/21 24/33/21
f 19/33/22 20/33/22 28/33/22 27/33/22
