# Blender v2.76 (sub 0) OBJ File: 'TS_tables.blend'
# www.blender.org
mtllib TS_table_RPG_big_phys.mtl
o Cube.003_Cube.005
v -34.386890 -0.578719 25.387022
v -34.386890 1.598126 25.387022
v -34.386890 -0.578719 -25.387259
v -34.386890 1.598126 -25.387259
v -22.600033 -0.578719 13.600116
v -22.600033 2.230883 13.600116
v -22.600033 -0.578719 -13.600350
v -22.600033 2.230883 -13.600350
v 34.386890 -0.578719 25.387022
v 34.386890 1.598126 25.387022
v 34.386890 -0.578719 -25.387259
v 34.386890 1.598126 -25.387259
v 22.600033 -0.578719 13.600116
v 22.600033 2.230883 13.600116
v 22.600033 -0.578719 -13.600350
v 22.600033 2.230883 -13.600350
v -36.529503 -0.578719 27.532745
v -36.529503 1.598126 27.532745
v -36.529503 -0.578719 -27.532982
v -36.529503 1.598126 -27.532982
v 36.529503 -0.578719 27.532745
v 36.529503 1.598126 27.532745
v 36.529503 -0.578719 -27.532982
v 36.529503 1.598126 -27.532982
v -21.999908 -0.578719 13.000000
v -21.999908 2.230883 13.000000
v -21.999908 -0.578719 -13.000000
v -21.999908 2.230883 -13.000000
v 21.999908 -0.578719 13.000000
v 21.999908 2.230883 13.000000
v 21.999908 -0.578719 -13.000000
v 21.999908 2.230883 -13.000000
v -34.387032 -0.632619 25.387022
v -34.387032 0.712269 25.387022
v -34.387032 -0.632619 -25.387259
v -34.387032 0.712269 -25.387259
v -22.600128 -0.632619 13.600116
v -22.600128 0.712269 13.600116
v -22.600128 -0.632619 -13.600350
v -22.600128 0.712269 -13.600350
v 34.387032 -0.632619 25.387022
v 34.387032 0.712269 25.387022
v 34.387032 -0.632619 -25.387259
v 34.387032 0.712269 -25.387259
v 22.600128 -0.632619 13.600116
v 22.600128 0.712269 13.600116
v 22.600128 -0.632619 -13.600350
v 22.600128 0.712269 -13.600350
vt 0.004976 0.008131
vt 0.004976 0.987560
vt 0.122057 0.760335
vt 0.122057 0.235508
vt 0.670496 0.987523
vt 0.556959 0.760446
vt 0.004976 0.000000
vn 0.000000 -1.000000 0.000000
vn 0.000000 1.000000 0.000000
vn 1.000000 0.000000 0.000000
vn -1.000000 0.000000 0.000000
vn 0.000000 0.000000 -1.000000
vn 0.000000 0.000000 1.000000
usemtl None
s off
f 33/1/1 35/2/1 39/3/1 37/4/1
f 38/4/2 40/3/2 36/2/2 34/1/2
f 41/1/1 45/4/1 47/3/1 43/2/1
f 46/4/2 42/1/2 44/2/2 48/3/2
f 34/5/2 42/2/2 46/3/2 38/6/2
f 37/6/1 45/3/1 41/2/1 33/5/1
f 35/5/1 43/2/1 47/3/1 39/6/1
f 40/6/2 48/3/2 44/2/2 36/5/2
usemtl None_NONE
f 2/7/3 1/7/3 3/7/3 4/7/3
f 8/7/4 7/7/4 5/7/4 6/7/4
f 19/7/5 20/7/5 24/7/5 23/7/5
f 10/7/2 2/7/2 18/7/2 22/7/2
f 10/7/4 12/7/4 11/7/4 9/7/4
f 16/7/3 14/7/3 13/7/3 15/7/3
f 18/7/6 17/7/6 21/7/6 22/7/6
f 2/7/2 4/7/2 20/7/2 18/7/2
f 5/7/6 13/7/6 14/7/6 6/7/6
f 3/7/1 1/7/1 17/7/1 19/7/1
f 2/7/5 10/7/5 9/7/5 1/7/5
f 22/7/3 21/7/3 23/7/3 24/7/3
f 18/7/4 20/7/4 19/7/4 17/7/4
f 7/7/5 8/7/5 16/7/5 15/7/5
f 1/7/1 9/7/1 21/7/1 17/7/1
f 3/7/6 11/7/6 12/7/6 4/7/6
f 9/7/1 11/7/1 23/7/1 21/7/1
f 12/7/2 10/7/2 22/7/2 24/7/2
f 4/7/2 12/7/2 24/7/2 20/7/2
f 11/7/1 3/7/1 19/7/1 23/7/1
f 28/7/3 26/7/3 25/7/3 27/7/3
f 32/7/4 31/7/4 29/7/4 30/7/4
f 25/7/5 26/7/5 30/7/5 29/7/5
f 27/7/6 31/7/6 32/7/6 28/7/6
f 16/7/2 8/7/2 28/7/2 32/7/2
f 14/7/2 16/7/2 32/7/2 30/7/2
f 7/7/1 15/7/1 31/7/1 27/7/1
f 6/7/2 14/7/2 30/7/2 26/7/2
f 5/7/1 7/7/1 27/7/1 25/7/1
f 8/7/2 6/7/2 26/7/2 28/7/2
f 13/7/1 5/7/1 25/7/1 29/7/1
f 15/7/1 13/7/1 29/7/1 31/7/1
f 34/7/4 36/7/4 35/7/4 33/7/4
f 40/7/3 38/7/3 37/7/3 39/7/3
f 42/7/3 41/7/3 43/7/3 44/7/3
f 48/7/4 47/7/4 45/7/4 46/7/4
f 37/7/5 38/7/5 46/7/5 45/7/5
f 34/7/6 33/7/6 41/7/6 42/7/6
f 39/7/6 47/7/6 48/7/6 40/7/6
f 35/7/5 36/7/5 44/7/5 43/7/5
