# Alias Wavefront OBJ File Exported from SketchUp
# with OBJexporter (c) 2013 TIG
# Units = meters

mtllib kdm_model_charsheet.mtl

g Untitled-SKP-SketchUV_Texture
usemtl SketchUV_Texture
v 5.63058925057 0.129746375 -12.5124205568
v -5.63058925057 0.129746375 -12.5124205568
v 5.63058925057 0.129746375 12.5124205568
v 5.63058925057 -0.129746375 12.5124205568
v -5.63058925057 -0.129746375 12.5124205568
v 5.63058925057 -0.129746375 -12.5124205568
v -5.63058925057 -0.129746375 -12.5124205568
v -5.63058925057 0.129746375 12.5124205568
vt -0.00474769859253 1
vt -0.454747698593 1
vt -0.00474769859253 1.44328993201e-15
vt 0.45 1
vt -4.16333634234e-16 1
vt 0.45 -1.66533453694e-16
vt 0.151140657262 -0.0118634643181
vt 1.15114065726 -0.0118634643181
vt 0.151140657262 -0.00149405782229
vt 1.03572824842 -0.000627153989681
vt 0.0358468811401 -0.000627153989681
vt 1.03572824842 -0.0109965604855
vt 0.45 1.11022302463e-16
vt -3.05311331772e-16 1
vt 2.77555756156e-17 1.11022302463e-16
vt 1.15114065726 -0.00149405782229
vt -0.00474769859253 2.6645352591e-15
vt -0.454747698593 2.6645352591e-15
vt 0.0358468811401 -0.0109965604855
vt 0.321509799084 0.0103694064958
vt 0.321509799084 -2.02962646689e-16
vt 0.771509799084 0.0103694064958
vt 0.144664721592 0.0103694064958
vt -0.305335278408 -2.07299455379e-16
vt 0.144664721592 -2.07299455379e-16
vt 0.321509799084 -2.05564731903e-16
vt 0.771509799084 -2.05564731903e-16
vt -0.305335278408 0.0103694064958
vt -0.305335278408 -2.10768902331e-16
vn 0 1 0
vn 0 -1 0
vn -1 0 0
vn 1 0 0
vn 0 0 -1
vn 0 0 1
f 1/1/1 2/2/1 3/3/1
f 4/4/2 5/5/2 6/6/2
f 7/7/3 5/8/3 2/9/3
f 1/10/4 3/11/4 6/12/4
f 6/13/2 5/14/2 7/15/2
f 2/9/3 5/8/3 8/16/3
f 3/17/1 2/2/1 8/18/1
f 6/12/4 3/11/4 4/19/4
f 1/20/5 6/21/5 2/22/5
f 3/23/6 5/24/6 4/25/6
f 2/22/5 6/26/5 7/27/5
f 8/28/6 5/29/6 3/23/6

#EOF