# Alias Wavefront OBJ File Exported from SketchUp
# with OBJexporter (c) 2013 TIG
# Units = meters

mtllib xpakbookmachine.mtl

g xpakbookmachine-SKP-SketchUV_Texture
usemtl SketchUV_Texture
v 14.4262054765 0.129746375 12.5124205568
v -9.36208047649 0.129746375 -12.5124205568
v -9.36208047649 0.129746375 12.5124205568
v 14.4262054765 0.129746375 -12.5124205568
v -9.36208047649 -0.129746375 12.5124205568
v 14.4262054765 -0.129746375 12.5124205568
v 14.4262054765 -0.129746375 -12.5124205568
v -9.36208047649 -0.129746375 -12.5124205568
vt 0.950586892638 1.66533453694e-16
vt -4.4408920985e-16 1
vt 0 1.11022302463e-16
vt 0.950586892638 1
vt 0.950586892638 0.0103694064958
vt 0 0
vt 0.950586892638 0
vt 0 0.0103694064958
vt 1 0.0103694064958
vt 0.0494131073625 8.67361737988e-19
vt 1 8.67361737988e-19
vt 0.0494131073625 0.0103694064958
vt 1 0
vt 5.55111512313e-17 0.0103694064958
vt 5.55111512313e-17 0
vt 4.4408920985e-16 0.0103694064958
vt 1.11022302463e-16 0
vt 0.950586892638 2.22044604925e-16
vn 0 1 0
vn 0 0 1
vn 0 0 -1
vn 1 0 0
vn -1 0 0
vn 0 -1 0
f 1/1/1 2/2/1 3/3/1
f 2/2/1 1/1/1 4/4/1
f 1/5/2 5/6/2 6/7/2
f 5/6/2 1/5/2 3/8/2
f 2/9/3 7/10/3 8/11/3
f 7/10/3 2/9/3 4/12/3
f 7/13/4 1/14/4 6/15/4
f 1/14/4 7/13/4 4/9/4
f 2/16/5 5/13/5 3/9/5
f 5/13/5 2/16/5 8/17/5
f 7/18/6 5/2/6 8/6/6
f 5/2/6 7/18/6 6/4/6

#EOF